# xmcd CD database file
#
# Track frame offsets:
#	150
#	14561
#	28760
#	57604
#	73160
#	88797
#	100377
#	113970
#	126220
#	140342
#	154267
#	169224
#	182372
#	195946
#	205168
#	218072
#	232517
#
# Disc length: 3251 seconds
#
# Revision: 0
# Processed by: cddbd v1.5.2PL0 Copyright (c) Steve Scherf et al.
# Submitted via: CDex 1.74
#
DISCID=ee0cb111
DTITLE=Various Artist - Best of Jazz 1
DYEAR=2012
DGENRE=Jazz
TTITLE0=A Night in Tunisia - Charlie Parker septet Feat. Miles davis
TTITLE1=Now They Call It Swing - Billy Holiday
TTITLE2=The Chase - Miles Davis Sextet
TTITLE3=Boogie Blues - Anita O' Day with Gene Krupa and his Orchestra
TTITLE4=Lover Man - Sarah Vaughan with Dizzy Gillespie
TTITLE5=St. Louis Blues - Art Tatum
TTITLE6=On the Sunny Side of the Street - Louis Armstrang and his Orchestra
TTITLE7=Dinah - Django Reinhardt, Stephane Grappelli and Quintet of Hot Club of France
TTITLE8=Georgia on my Mind - Fats Waller
TTITLE9=Harlem Air shaft - Duke Ellington and his Orchestra
TTITLE10=Lester Leaps In - Lester Young and The Kansas City Five
TTITLE11=Sweet Sue, Just You - Louis Prima and his New Orleans Gang
TTITLE12=Mr. Paganini You'll Have To Swing It - Ella Fitzgerald
TTITLE13=Pretending I'm Happy - memphis Slim
TTITLE14=Seven Come Eleven - Benny Goodman Sextet
TTITLE15=The Scat Song - Cab Calloway
TTITLE16=Swing on a Star - Bing Crosby
EXTD=YEAR: 2012
EXTT0=
EXTT1=
EXTT2=
EXTT3=
EXTT4=
EXTT5=
EXTT6=
EXTT7=
EXTT8=
EXTT9=
EXTT10=
EXTT11=
EXTT12=
EXTT13=
EXTT14=
EXTT15=
EXTT16=
PLAYORDER=
